# xmcd CD database file
#
# Track frame offsets:
#	150
#	21690
#	48687
#	65485
#	94832
#	116172
#	144980
#	185107
#	203017
#	230237
#	260645
#	263855
#	289660
#
# Disc length: 4280 seconds
#
# Revision: 0
# Processed by: cddbd v1.5.1PL0 Copyright (c) Steve Scherf et al.
# Submitted via: CDex 1.51
#
DISCID=d510b60d
DTITLE=Hot 8 Brass Band - Rock with the Hot 8
DYEAR=2005
DGENRE=Jazz
TTITLE0=Jisten to Me
TTITLE1=I Got You
TTITLE2=Skeet Skeet
TTITLE3=Rock with the Hot 8
TTITLE4=E Flat Blues
TTITLE5=Rastafunk
TTITLE6=Sexual Healing
TTITLE7=Fly Away
TTITLE8=Love Don't Live Here
TTITLE9=We Are One
TTITLE10=Skit #1
TTITLE11=It's Real
TTITLE12=Get Up
EXTD=YEAR: 2005
EXTT0=
EXTT1=
EXTT2=
EXTT3=
EXTT4=
EXTT5=
EXTT6=
EXTT7=
EXTT8=
EXTT9=
EXTT10=
EXTT11=
EXTT12=
PLAYORDER=
